<?xml version="1.0" encoding="iso-8859-1"?>
<!-- Generator: Adobe Illustrator 19.0.0, SVG Export Plug-In . SVG Version: 6.00 Build 0)  -->
<svg version="1.1" id="Capa_1" xmlns="http://www.w3.org/2000/svg" xmlns:xlink="http://www.w3.org/1999/xlink" x="0px" y="0px"
	 viewBox="0 0 511.998 511.998" style="enable-background:new 0 0 511.998 511.998;" xml:space="preserve">
<path style="fill:#303C42;" d="M501.332,383.991c-2.656,0-5.302-0.979-7.375-2.958L255.999,153.418L18.04,381.033
	c-4.26,4.083-11.01,3.938-15.083-0.333c-4.073-4.26-3.917-11.01,0.333-15.083l245.333-234.667c4.125-3.937,10.625-3.937,14.75,0
	l245.333,234.667c4.25,4.073,4.406,10.823,0.333,15.083C506.947,382.887,504.145,383.991,501.332,383.991z"/>
<linearGradient id="SVGID_1_" gradientUnits="userSpaceOnUse" x1="-43.5239" y1="635.9147" x2="-23.7257" y2="626.6821" gradientTransform="matrix(21.3333 0 0 -21.3333 996.3578 13791.6406)">
	<stop  offset="0" style="stop-color:#FFFFFF;stop-opacity:0.2"/>
	<stop  offset="1" style="stop-color:#FFFFFF;stop-opacity:0"/>
</linearGradient>
<path style="fill:url(#SVGID_1_);" d="M501.332,383.991c-2.656,0-5.302-0.979-7.375-2.958L255.999,153.418L18.04,381.033
	c-4.26,4.083-11.01,3.938-15.083-0.333c-4.073-4.26-3.917-11.01,0.333-15.083l245.333-234.667c4.125-3.937,10.625-3.937,14.75,0
	l245.333,234.667c4.25,4.073,4.406,10.823,0.333,15.083C506.947,382.887,504.145,383.991,501.332,383.991z"/>
<g>
</g>
<g>
</g>
<g>
</g>
<g>
</g>
<g>
</g>
<g>
</g>
<g>
</g>
<g>
</g>
<g>
</g>
<g>
</g>
<g>
</g>
<g>
</g>
<g>
</g>
<g>
</g>
<g>
</g>
</svg>
