<svg xmlns="http://www.w3.org/2000/svg"
 xmlns:xlink="http://www.w3.org/1999/xlink"
 width="14px" height="25px"  viewBox="0 0 14 25">
<path fill-rule="evenodd"  fill="#ffffff"
 d="M12.499512,1.0991211 C12.499512,1.0991211 9.633179,1.0947266 9.633179,1.0947266 C6.41333,1.0947266 4.3326416,3.2104492 4.3326416,6.48584 C4.3326416,6.48584 4.3326416,8.971191 4.3326416,8.971191 C4.3326416,8.971191 1.4508057,8.971191 1.4508057,8.971191 C1.2017822,8.971191 1.0001221,9.171387 1.0001221,9.417969 C1.0001221,9.417969 1.0001221,13.019531 1.0001221,13.019531 C1.0001221,13.266602 1.2020264,13.466309 1.4508057,13.466309 C1.4508057,13.466309 4.3323975,13.466309 4.3323975,13.466309 C4.3323975,13.466309 4.3323975,22.55371 4.3323975,22.55371 C4.3323975,22.800293 4.5340576,23.0 4.783081,23.0 C4.783081,23.0 8.542969,23.0 8.542969,23.0 C8.79187,23.0 8.99353,22.799805 8.99353,22.55371 C8.99353,22.55371 8.99353,13.466309 8.99353,13.466309 C8.99353,13.466309 12.362915,13.466309 12.362915,13.466309 C12.611816,13.466309 12.813599,13.266602 12.813599,13.019531 C12.813599,13.019531 12.814941,9.417969 12.814941,9.417969 C12.814941,9.299805 12.767334,9.186523 12.683105,9.102051 C12.598389,9.018555 12.4835205,8.971191 12.364136,8.971191 C12.364136,8.971191 8.993774,8.971191 8.993774,8.971191 C8.993774,8.971191 8.993774,6.864258 8.993774,6.864258 C8.993774,5.8515625 9.237183,5.3374023 10.568115,5.3374023 C10.568115,5.3374023 12.499023,5.336426 12.499023,5.336426 C12.747803,5.336426 12.949463,5.1367188 12.949463,4.8901367 C12.949463,4.8901367 12.949463,1.5458984 12.949463,1.5458984 C12.949463,1.2998047 12.748047,1.0996094 12.499512,1.0991211 Z"/>
</svg>