<svg xmlns="http://www.w3.org/2000/svg"
 xmlns:xlink="http://www.w3.org/1999/xlink"
 width="33px" height="22px"  viewBox="0 0 33 22">
<path fill-rule="evenodd"  fill="#ffffff"
 d="M28.197754,9.171387 C28.197754,9.171387 28.197754,5.2285156 28.197754,5.2285156 C28.197754,5.2285156 26.296753,5.2285156 26.296753,5.2285156 C26.296753,5.2285156 26.296753,9.171387 26.296753,9.171387 C26.296753,9.171387 22.494507,9.171387 22.494507,9.171387 C22.494507,9.171387 22.494507,11.142578 22.494507,11.142578 C22.494507,11.142578 26.296753,11.142578 26.296753,11.142578 C26.296753,11.142578 26.296753,15.085449 26.296753,15.085449 C26.296753,15.085449 28.197754,15.085449 28.197754,15.085449 C28.197754,15.085449 28.197754,11.142578 28.197754,11.142578 C28.197754,11.142578 32.0,11.142578 32.0,11.142578 C32.0,11.142578 32.0,9.171387 32.0,9.171387 C32.0,9.171387 28.197754,9.171387 28.197754,9.171387 ZM11.088135,9.171387 C11.088135,9.171387 11.088135,13.114258 11.088135,13.114258 C11.088135,13.114258 16.466187,13.114258 16.466187,13.114258 C15.68103,15.40918 13.567139,17.057129 11.088135,17.057129 C7.9437256,17.057129 5.3847656,14.40332 5.3847656,11.142578 C5.3847656,7.881836 7.9437256,5.2285156 11.088135,5.2285156 C12.451172,5.2285156 13.762939,5.7353516 14.78186,6.6557617 C14.78186,6.6557617 17.279907,3.6826172 17.279907,3.6826172 C15.568848,2.137207 13.371338,1.2856445 11.088135,1.2856445 C5.8468018,1.2856445 1.5827637,5.7075195 1.5827637,11.142578 C1.5827637,16.578125 5.8468018,21.0 11.088135,21.0 C16.329346,21.0 20.593506,16.578125 20.593506,11.142578 C20.593506,11.142578 20.593506,9.171387 20.593506,9.171387 C20.593506,9.171387 11.088135,9.171387 11.088135,9.171387 Z"/>
</svg>