<svg xmlns="http://www.w3.org/2000/svg"
 xmlns:xlink="http://www.w3.org/1999/xlink"
 width="26px" height="26px"  viewBox="0 0 26 26">
<path fill-rule="evenodd"  fill="#ffffff"
 d="M6.526001,9.390137 C6.526001,9.390137 1.9462891,9.390137 1.9462891,9.390137 C1.7431641,9.390137 1.5783691,9.556641 1.5783691,9.762207 C1.5783691,9.762207 1.5783691,24.62793 1.5783691,24.62793 C1.5783691,24.833496 1.7431641,25.0 1.9462891,25.0 C1.9462891,25.0 6.526001,25.0 6.526001,25.0 C6.72937,25.0 6.894043,24.833496 6.894043,24.62793 C6.894043,24.62793 6.894043,9.762207 6.894043,9.762207 C6.894043,9.556641 6.72937,9.390137 6.526001,9.390137 ZM4.237793,2.0 C2.5714111,2.0 1.2158203,3.368164 1.2158203,5.0498047 C1.2158203,6.732422 2.5714111,8.1015625 4.237793,8.1015625 C5.902954,8.1015625 7.2574463,6.732422 7.2574463,5.0498047 C7.2575684,3.368164 5.902954,2.0 4.237793,2.0 ZM18.174927,9.020508 C16.335571,9.020508 14.97583,9.819824 14.151001,10.727539 C14.151001,10.727539 14.151001,9.762207 14.151001,9.762207 C14.151001,9.556641 13.986328,9.390137 13.783203,9.390137 C13.783203,9.390137 9.397339,9.390137 9.397339,9.390137 C9.194092,9.390137 9.029297,9.556641 9.029297,9.762207 C9.029297,9.762207 9.029297,24.62793 9.029297,24.62793 C9.029297,24.833496 9.194092,25.0 9.397339,25.0 C9.397339,25.0 13.966919,25.0 13.966919,25.0 C14.170288,25.0 14.334961,24.833496 14.334961,24.62793 C14.334961,24.62793 14.334961,17.27246 14.334961,17.27246 C14.334961,14.794434 15.001221,13.828613 16.711182,13.828613 C18.573364,13.828613 18.721436,15.376953 18.721436,17.40039 C18.721436,17.40039 18.721436,24.62793 18.721436,24.62793 C18.721436,24.833496 18.886108,25.0 19.089233,25.0 C19.089233,25.0 23.660767,25.0 23.660767,25.0 C23.864136,25.0 24.028809,24.833496 24.028809,24.62793 C24.028809,24.62793 24.028809,16.473633 24.028809,16.473633 C24.028809,12.788086 23.333252,9.020508 18.174927,9.020508 Z"/>
</svg>