<svg xmlns="http://www.w3.org/2000/svg"
 xmlns:xlink="http://www.w3.org/1999/xlink"
 width="28px" height="23px"  viewBox="0 0 28 23">
<path fill-rule="evenodd"  fill="#ffffff"
 d="M26.463013,3.6538086 C25.533936,4.071289 24.543701,4.348633 23.511597,4.48291 C24.573486,3.8330078 25.383911,2.8115234 25.764893,1.5810547 C24.774902,2.1860352 23.681763,2.6132812 22.516724,2.8520508 C21.576782,1.8261719 20.236938,1.1904297 18.775269,1.1904297 C15.939453,1.1904297 13.65625,3.5498047 13.65625,6.442383 C13.65625,6.8588867 13.690674,7.258789 13.775024,7.6396484 C9.5164795,7.426758 5.748291,5.3344727 3.217041,2.147461 C2.7750244,2.9335938 2.5158691,3.8330078 2.5158691,4.8012695 C2.5158691,6.620117 3.4294434,8.231934 4.7911377,9.165039 C3.9680176,9.148926 3.1607666,8.904297 2.4768066,8.518555 C2.4768066,8.534668 2.4768066,8.555176 2.4768066,8.576172 C2.4768066,11.12793 4.2523193,13.24707 6.5806885,13.735352 C6.1636963,13.852051 5.7093506,13.908203 5.237671,13.908203 C4.90979,13.908203 4.5787354,13.88916 4.2680664,13.818359 C4.9316406,15.897949 6.8149414,17.426758 9.054321,17.476074 C7.3115234,18.873535 5.098755,19.71582 2.703247,19.71582 C2.2832031,19.71582 1.8803711,19.69629 1.477417,19.643555 C3.74646,21.143555 6.435425,22.0 9.335327,22.0 C18.76123,22.0 23.914429,13.996094 23.914429,7.0585938 C23.914429,6.826172 23.906616,6.602539 23.895752,6.379883 C24.912354,5.640625 25.766602,4.716797 26.463013,3.6538086 Z"/>
</svg>